# xmcd CD database file
#
# Track frame offsets:
#	150
#	4608
#	26425
#	45144
#	61058
#	79472
#	91469
#	108651
#	128919
#	144437
#	163400
#
# Disc length: 2426 seconds
#
# Revision: 0
# Processed by: cddbd v1.5.1PL0 Copyright (c) Steve Scherf et al.
# Submitted via: CDex 1.51
#
DISCID=8809780b
DTITLE=VADER - THE BEAST
DYEAR=2004
DGENRE=Death Metal
TTITLE0=Intro
TTITLE1=Out of the Deep
TTITLE2=Dark Transmission
TTITLE3=Firebringer
TTITLE4=The Sea Came in at Last
TTITLE5=Stranger in the Mirror
TTITLE6=I Shall Prevail
TTITLE7=The Zone
TTITLE8=Insomnia
TTITLE9=Apopheniac
TTITLE10=Choices
EXTD=YEAR: 2004
EXTT0=
EXTT1=
EXTT2=
EXTT3=
EXTT4=
EXTT5=
EXTT6=
EXTT7=
EXTT8=
EXTT9=
EXTT10=
PLAYORDER=
